# xmcd
#
# Track frame offsets: 
#        150
#        37517
#        74747
#        107600
#        162675
#        203960
#
# Disc length: 3409 seconds
#
# Revision: 1
# Processed by: cddbd v1.5.2PL0 Copyright (c) Steve Scherf et al.
# Submitted via: ExactAudioCopy v0.99pb5
#
DISCID=500d4f06
DTITLE=François Merville Quintet - La part de l'ombre
DYEAR=2000
DGENRE=Jazz
TTITLE0=One more Tim
TTITLE1=Le sud du haut
TTITLE2=Anachronisme
TTITLE3=Le songe du miroir
TTITLE4=Rumeur défiante
TTITLE5=Nolypso
EXTD=YEAR: 2000
EXTT0=
EXTT1=
EXTT2=
EXTT3=
EXTT4=
EXTT5=
PLAYORDER=
